<svg xmlns="http://www.w3.org/2000/svg" xmlns:xlink="http://www.w3.org/1999/xlink" width="1000" zoomAndPan="magnify" viewBox="0 0 750 236.249991" height="315" preserveAspectRatio="xMidYMid meet" version="1.0"><defs><filter x="0%" y="0%" width="100%" height="100%" id="d0e749e39e"><feColorMatrix values="0 0 0 0 1 0 0 0 0 1 0 0 0 0 1 0 0 0 1 0" color-interpolation-filters="sRGB"/></filter><g/><clipPath id="bfec35f4f7"><path d="M 386.171875 171.664062 L 737.203125 171.664062 L 737.203125 185.699219 L 386.171875 185.699219 Z M 386.171875 171.664062 " clip-rule="nonzero"/></clipPath><clipPath id="6786552e4b"><path d="M 0.171875 0.664062 L 351.203125 0.664062 L 351.203125 14.699219 L 0.171875 14.699219 Z M 0.171875 0.664062 " clip-rule="nonzero"/></clipPath><clipPath id="08b7f5c4ea"><rect x="0" width="352" y="0" height="15"/></clipPath><clipPath id="9f1016db57"><path d="M 12.796875 171.664062 L 386.171875 171.664062 L 386.171875 185.699219 L 12.796875 185.699219 Z M 12.796875 171.664062 " clip-rule="nonzero"/></clipPath><clipPath id="5ece25b52b"><path d="M 0.796875 0.664062 L 374.171875 0.664062 L 374.171875 14.699219 L 0.796875 14.699219 Z M 0.796875 0.664062 " clip-rule="nonzero"/></clipPath><clipPath id="fad4a564c0"><rect x="0" width="375" y="0" height="15"/></clipPath><mask id="d33acb2031"><g filter="url(#d0e749e39e)"><rect x="-75" width="900" fill="#000000" y="-23.624999" height="283.499989" fill-opacity="0.95"/></g></mask><clipPath id="93a271fddd"><path d="M 0.453125 0.320312 L 373.191406 0.320312 L 373.191406 186.691406 L 0.453125 186.691406 Z M 0.453125 0.320312 " clip-rule="nonzero"/></clipPath><clipPath id="47a66c2ebf"><rect x="0" width="374" y="0" height="187"/></clipPath><clipPath id="e61cacc773"><rect x="0" width="374" y="0" height="187"/></clipPath><clipPath id="05db84e0c5"><path d="M 0.316406 0.320312 L 106 0.320312 L 106 186.691406 L 0.316406 186.691406 Z M 0.316406 0.320312 " clip-rule="nonzero"/></clipPath><mask id="c71b833633"><g filter="url(#d0e749e39e)"><rect x="-541" width="1080" fill="#000000" y="-88.974998" height="340.199987" fill-opacity="0.95"/></g></mask><clipPath id="b50a3a8334"><path d="M 0.316406 0.320312 L 105.582031 0.320312 L 105.582031 186.691406 L 0.316406 186.691406 Z M 0.316406 0.320312 " clip-rule="nonzero"/></clipPath><clipPath id="f38e1ac4c8"><path d="M 9 10 L 105.582031 10 L 105.582031 134 L 9 134 Z M 9 10 " clip-rule="nonzero"/></clipPath><clipPath id="23baabb222"><rect x="0" width="106" y="0" height="187"/></clipPath><clipPath id="87a5c72ae2"><rect x="0" width="106" y="0" height="187"/></clipPath><clipPath id="796eda1950"><path d="M 251 0.320312 L 354.390625 0.320312 L 354.390625 186.691406 L 251 186.691406 Z M 251 0.320312 " clip-rule="nonzero"/></clipPath><mask id="2c78ceab14"><g filter="url(#d0e749e39e)"><rect x="-541" width="1080" fill="#000000" y="-88.974998" height="340.199987" fill-opacity="0.95"/></g></mask><clipPath id="eca38fe91e"><path d="M 0.0390625 0.320312 L 103.390625 0.320312 L 103.390625 186.691406 L 0.0390625 186.691406 Z M 0.0390625 0.320312 " clip-rule="nonzero"/></clipPath><clipPath id="9c1561ddd3"><rect x="0" width="104" y="0" height="187"/></clipPath><clipPath id="b406cf6898"><rect x="0" width="104" y="0" height="187"/></clipPath><clipPath id="53bfffa8c8"><path d="M 101 0.320312 L 195 0.320312 L 195 186.691406 L 101 186.691406 Z M 101 0.320312 " clip-rule="nonzero"/></clipPath><mask id="f726b04222"><g filter="url(#d0e749e39e)"><rect x="-541" width="1080" fill="#000000" y="-88.974998" height="340.199987" fill-opacity="0.95"/></g></mask><clipPath id="d0bc6301b3"><path d="M 0.0351562 0.320312 L 93.578125 0.320312 L 93.578125 186.691406 L 0.0351562 186.691406 Z M 0.0351562 0.320312 " clip-rule="nonzero"/></clipPath><clipPath id="f564f90515"><path d="M 3 54 L 93.578125 54 L 93.578125 136 L 3 136 Z M 3 54 " clip-rule="nonzero"/></clipPath><clipPath id="6984935e02"><rect x="0" width="94" y="0" height="187"/></clipPath><clipPath id="e1d5ded115"><rect x="0" width="94" y="0" height="187"/></clipPath><clipPath id="2c9c3f6014"><path d="M 189 0.320312 L 264 0.320312 L 264 186.691406 L 189 186.691406 Z M 189 0.320312 " clip-rule="nonzero"/></clipPath><clipPath id="aa7f1b50fd"><rect x="0" width="75" y="0" height="187"/></clipPath><clipPath id="00f36d97cf"><rect x="0" width="355" y="0" height="187"/></clipPath></defs><g clip-path="url(#bfec35f4f7)"><g transform="matrix(1, 0, 0, 1, 386, 171)"><g clip-path="url(#08b7f5c4ea)"><g clip-path="url(#6786552e4b)"><path fill="#1ff4ee" d="M 0.171875 0.664062 L 351.1875 0.664062 L 351.1875 14.699219 L 0.171875 14.699219 Z M 0.171875 0.664062 " fill-opacity="1" fill-rule="nonzero"/></g></g></g></g><g clip-path="url(#9f1016db57)"><g transform="matrix(1, 0, 0, 1, 12, 171)"><g clip-path="url(#fad4a564c0)"><g clip-path="url(#5ece25b52b)"><path fill="#eb0042" d="M 0.796875 0.664062 L 374.183594 0.664062 L 374.183594 14.699219 L 0.796875 14.699219 Z M 0.796875 0.664062 " fill-opacity="1" fill-rule="nonzero"/></g></g></g></g><g mask="url(#d33acb2031)"><g transform="matrix(1, 0, 0, 1, 17, 37)"><g clip-path="url(#e61cacc773)"><g clip-path="url(#93a271fddd)"><g transform="matrix(1, 0, 0, 1, -0.000000000000003553, -0.000000000000007105)"><g clip-path="url(#47a66c2ebf)"><g fill="#ffffff" fill-opacity="1"><g transform="translate(1.333351, 133.124953)"><g><path d="M 36.9375 -49.296875 L 36.9375 0 L 8.9375 0 L 8.9375 -122.875 L 36.9375 -122.875 L 36.9375 -73.875 L 76.546875 -73.875 L 76.546875 -122.875 L 104.546875 -122.875 L 104.546875 0 L 76.546875 0 L 76.546875 -49.296875 Z M 36.9375 -49.296875 "/></g></g></g><g fill="#ffffff" fill-opacity="1"><g transform="translate(100.812954, 133.124953)"><g><path d="M 16.15625 -9.078125 C 7.664062 -16.628906 3.421875 -26.3125 3.421875 -38.125 C 3.421875 -49.9375 7.835938 -59.640625 16.671875 -67.234375 C 25.515625 -74.835938 36.441406 -78.640625 49.453125 -78.640625 C 62.253906 -78.640625 73.046875 -74.816406 81.828125 -67.171875 C 90.617188 -59.523438 95.015625 -49.84375 95.015625 -38.125 C 95.015625 -26.40625 90.71875 -16.75 82.125 -9.15625 C 73.539062 -1.5625 62.648438 2.234375 49.453125 2.234375 C 35.742188 2.234375 24.644531 -1.535156 16.15625 -9.078125 Z M 36.5625 -51.078125 C 33.132812 -47.703125 31.421875 -43.382812 31.421875 -38.125 C 31.421875 -32.863281 33.054688 -28.566406 36.328125 -25.234375 C 39.609375 -21.910156 43.929688 -20.25 49.296875 -20.25 C 54.460938 -20.25 58.707031 -21.9375 62.03125 -25.3125 C 65.351562 -28.695312 67.015625 -32.96875 67.015625 -38.125 C 67.015625 -43.382812 65.300781 -47.703125 61.875 -51.078125 C 58.457031 -54.460938 54.265625 -56.15625 49.296875 -56.15625 C 44.234375 -56.15625 39.988281 -54.460938 36.5625 -51.078125 Z M 36.5625 -51.078125 "/></g></g></g><g fill="#ffffff" fill-opacity="1"><g transform="translate(185.251077, 133.124953)"><g><path d="M 16.15625 -9.078125 C 7.664062 -16.628906 3.421875 -26.3125 3.421875 -38.125 C 3.421875 -49.9375 7.835938 -59.640625 16.671875 -67.234375 C 25.515625 -74.835938 36.441406 -78.640625 49.453125 -78.640625 C 62.253906 -78.640625 73.046875 -74.816406 81.828125 -67.171875 C 90.617188 -59.523438 95.015625 -49.84375 95.015625 -38.125 C 95.015625 -26.40625 90.71875 -16.75 82.125 -9.15625 C 73.539062 -1.5625 62.648438 2.234375 49.453125 2.234375 C 35.742188 2.234375 24.644531 -1.535156 16.15625 -9.078125 Z M 36.5625 -51.078125 C 33.132812 -47.703125 31.421875 -43.382812 31.421875 -38.125 C 31.421875 -32.863281 33.054688 -28.566406 36.328125 -25.234375 C 39.609375 -21.910156 43.929688 -20.25 49.296875 -20.25 C 54.460938 -20.25 58.707031 -21.9375 62.03125 -25.3125 C 65.351562 -28.695312 67.015625 -32.96875 67.015625 -38.125 C 67.015625 -43.382812 65.300781 -47.703125 61.875 -51.078125 C 58.457031 -54.460938 54.265625 -56.15625 49.296875 -56.15625 C 44.234375 -56.15625 39.988281 -54.460938 36.5625 -51.078125 Z M 36.5625 -51.078125 "/></g></g></g><g fill="#ffffff" fill-opacity="1"><g transform="translate(269.689199, 133.124953)"><g><path d="M 96.21875 -76.40625 L 59.875 -39.921875 L 99.78125 0 L 65.828125 0 L 35.296875 -30.53125 L 35.296875 0 L 8.9375 0 L 8.9375 -128.09375 L 35.296875 -128.09375 L 35.296875 -49.75 L 61.953125 -76.40625 Z M 96.21875 -76.40625 "/></g></g></g></g></g></g></g></g></g><g transform="matrix(1, 0, 0, 1, 376, 37)"><g clip-path="url(#00f36d97cf)"><g clip-path="url(#05db84e0c5)"><g mask="url(#c71b833633)"><g transform="matrix(1, 0, 0, 1, -0.000000000000056843, -0.000000000000007105)"><g clip-path="url(#87a5c72ae2)"><g clip-path="url(#b50a3a8334)"><g transform="matrix(1, 0, 0, 1, -0.000000000000056843, -0.000000000000007105)"><g clip-path="url(#23baabb222)"><g clip-path="url(#f38e1ac4c8)"><g fill="#ffffff" fill-opacity="1"><g transform="translate(0.491178, 133.124936)"><g><path d="M 36.9375 -49.296875 L 36.9375 0 L 8.9375 0 L 8.9375 -122.875 L 36.9375 -122.875 L 36.9375 -73.875 L 76.546875 -73.875 L 76.546875 -122.875 L 104.546875 -122.875 L 104.546875 0 L 76.546875 0 L 76.546875 -49.296875 Z M 36.9375 -49.296875 "/></g></g></g></g></g></g></g></g></g></g></g><g clip-path="url(#796eda1950)"><g mask="url(#2c78ceab14)"><g transform="matrix(1, 0, 0, 1, 251, -0.000000000000007105)"><g clip-path="url(#b406cf6898)"><g clip-path="url(#eca38fe91e)"><g transform="matrix(1, 0, 0, 1, -0.000000000000113687, -0.000000000000007105)"><g clip-path="url(#9c1561ddd3)"><g fill="#ffffff" fill-opacity="1"><g transform="translate(2.019576, 133.124936)"><g><path d="M 96.21875 -76.40625 L 59.875 -39.921875 L 99.78125 0 L 65.828125 0 L 35.296875 -30.53125 L 35.296875 0 L 8.9375 0 L 8.9375 -128.09375 L 35.296875 -128.09375 L 35.296875 -49.75 L 61.953125 -76.40625 Z M 96.21875 -76.40625 "/></g></g></g></g></g></g></g></g></g></g><g clip-path="url(#53bfffa8c8)"><g mask="url(#f726b04222)"><g transform="matrix(1, 0, 0, 1, 101, -0.000000000000007105)"><g clip-path="url(#e1d5ded115)"><g clip-path="url(#d0bc6301b3)"><g transform="matrix(1, 0, 0, 1, -0.000000000000113687, -0.000000000000007105)"><g clip-path="url(#6984935e02)"><g clip-path="url(#f564f90515)"><g fill="#ffffff" fill-opacity="1"><g transform="translate(0.236977, 133.124936)"><g><path d="M 14.140625 -9.453125 C 6.992188 -17.253906 3.421875 -26.8125 3.421875 -38.125 C 3.421875 -49.445312 6.992188 -59.03125 14.140625 -66.875 C 21.296875 -74.71875 30.382812 -78.640625 41.40625 -78.640625 C 51.53125 -78.640625 59.867188 -75.460938 66.421875 -69.109375 L 66.421875 -76.40625 L 92.78125 -76.40625 L 92.78125 0 L 66.71875 0 L 66.71875 -8.640625 L 66.421875 -8.640625 C 59.867188 -1.390625 51.53125 2.234375 41.40625 2.234375 C 30.382812 2.234375 21.296875 -1.660156 14.140625 -9.453125 Z M 36.5625 -51.078125 C 33.132812 -47.703125 31.421875 -43.382812 31.421875 -38.125 C 31.421875 -32.863281 33.054688 -28.566406 36.328125 -25.234375 C 39.609375 -21.910156 43.929688 -20.25 49.296875 -20.25 C 54.460938 -20.25 58.707031 -21.9375 62.03125 -25.3125 C 65.351562 -28.695312 67.015625 -32.96875 67.015625 -38.125 C 67.015625 -43.382812 65.300781 -47.703125 61.875 -51.078125 C 58.457031 -54.460938 54.265625 -56.15625 49.296875 -56.15625 C 44.234375 -56.15625 39.988281 -54.460938 36.5625 -51.078125 Z M 36.5625 -51.078125 "/></g></g></g></g></g></g></g></g></g></g></g><g clip-path="url(#2c9c3f6014)"><g transform="matrix(1, 0, 0, 1, 189, -0.000000000000007105)"><g clip-path="url(#aa7f1b50fd)"><g fill="#ffffff" fill-opacity="1"><g transform="translate(1.568213, 133.124936)"><g><path d="M 49.59375 -57.046875 C 44.632812 -57.046875 40.363281 -55.207031 36.78125 -51.53125 C 33.207031 -47.851562 31.421875 -43.4375 31.421875 -38.28125 C 31.421875 -33.019531 33.207031 -28.550781 36.78125 -24.875 C 40.363281 -21.195312 44.632812 -19.359375 49.59375 -19.359375 C 51.976562 -19.359375 54.238281 -19.65625 56.375 -20.25 C 58.507812 -20.851562 60.070312 -21.453125 61.0625 -22.046875 L 62.40625 -22.9375 L 71.34375 -4.609375 C 70.644531 -4.117188 69.675781 -3.5 68.4375 -2.75 C 67.195312 -2.007812 64.363281 -0.992188 59.9375 0.296875 C 55.519531 1.585938 50.78125 2.234375 45.71875 2.234375 C 34.5 2.234375 24.644531 -1.710938 16.15625 -9.609375 C 7.664062 -17.503906 3.421875 -26.960938 3.421875 -37.984375 C 3.421875 -49.097656 7.664062 -58.648438 16.15625 -66.640625 C 24.644531 -74.640625 34.5 -78.640625 45.71875 -78.640625 C 50.78125 -78.640625 55.445312 -78.039062 59.71875 -76.84375 C 63.988281 -75.65625 67.019531 -74.46875 68.8125 -73.28125 L 71.34375 -71.484375 L 62.40625 -53.46875 C 59.125 -55.851562 54.851562 -57.046875 49.59375 -57.046875 Z M 49.59375 -57.046875 "/></g></g></g></g></g></g></g></g></svg>