<svg xmlns="http://www.w3.org/2000/svg" xmlns:xlink="http://www.w3.org/1999/xlink" zoomAndPan="magnify" preserveAspectRatio="xMidYMid meet" version="1.2" viewBox="47.2 140.61 278.81 77.52"><defs><clipPath id="6b4ca2cc70"><path d="M 190.90625 190.503906 L 326.015625 190.503906 L 326.015625 195.90625 L 190.90625 195.90625 Z M 190.90625 190.503906 "/></clipPath><clipPath id="242ed17313"><path d="M 47.199219 190.503906 L 190.90625 190.503906 L 190.90625 195.90625 L 47.199219 195.90625 Z M 47.199219 190.503906 "/></clipPath><filter x="0%" y="0%" width="100%" filterUnits="objectBoundingBox" id="77031b2f44" height="100%"><feColorMatrix values="0 0 0 0 1 0 0 0 0 1 0 0 0 0 1 0 0 0 1 0" type="matrix" in="SourceGraphic"/></filter><clipPath id="2f529d787c"><rect x="0" width="145" y="0" height="73"/></clipPath><clipPath id="2473489a42"><path d="M 4 4 L 41.761719 4 L 41.761719 52 L 4 52 Z M 4 4 "/></clipPath><clipPath id="7d9c9f9436"><rect x="0" width="42" y="0" height="73"/></clipPath><clipPath id="90636dc6e7"><rect x="0" width="41" y="0" height="73"/></clipPath><clipPath id="e657c86edf"><path d="M 2 21 L 36.839844 21 L 36.839844 53 L 2 53 Z M 2 21 "/></clipPath><clipPath id="a436e1893e"><rect x="0" width="37" y="0" height="73"/></clipPath></defs><g id="8af7cc1444"><g clip-rule="nonzero" clip-path="url(#6b4ca2cc70)"><path style=" stroke:none;fill-rule:nonzero;fill:#1ff4ee;fill-opacity:1;" d="M 190.90625 190.503906 L 326.011719 190.503906 L 326.011719 195.90625 L 190.90625 195.90625 Z M 190.90625 190.503906 "/></g><g clip-rule="nonzero" clip-path="url(#242ed17313)"><path style=" stroke:none;fill-rule:nonzero;fill:#eb0042;fill-opacity:1;" d="M 47.199219 190.503906 L 190.910156 190.503906 L 190.910156 195.90625 L 47.199219 195.90625 Z M 47.199219 190.503906 "/></g><g mask="url(#63995a3f6f)" transform="matrix(1,0,0,1,48,138)"><g clip-path="url(#2f529d787c)"><g style="fill:#ffffff;fill-opacity:1;"><g transform="translate(1.328045, 51.910393)"><path style="stroke:none" d="M 14.21875 -18.96875 L 14.21875 0 L 3.4375 0 L 3.4375 -47.296875 L 14.21875 -47.296875 L 14.21875 -28.4375 L 29.46875 -28.4375 L 29.46875 -47.296875 L 40.25 -47.296875 L 40.25 0 L 29.46875 0 L 29.46875 -18.96875 Z M 14.21875 -18.96875 "/></g></g><g style="fill:#ffffff;fill-opacity:1;"><g transform="translate(39.616974, 51.910393)"><path style="stroke:none" d="M 6.21875 -3.5 C 2.945312 -6.40625 1.3125 -10.128906 1.3125 -14.671875 C 1.3125 -19.222656 3.007812 -22.957031 6.40625 -25.875 C 9.8125 -28.800781 14.019531 -30.265625 19.03125 -30.265625 C 23.957031 -30.265625 28.113281 -28.789062 31.5 -25.84375 C 34.882812 -22.90625 36.578125 -19.179688 36.578125 -14.671875 C 36.578125 -10.160156 34.921875 -6.441406 31.609375 -3.515625 C 28.304688 -0.597656 24.113281 0.859375 19.03125 0.859375 C 13.757812 0.859375 9.488281 -0.59375 6.21875 -3.5 Z M 14.0625 -19.65625 C 12.75 -18.363281 12.09375 -16.703125 12.09375 -14.671875 C 12.09375 -12.648438 12.722656 -11 13.984375 -9.71875 C 15.242188 -8.4375 16.90625 -7.796875 18.96875 -7.796875 C 20.957031 -7.796875 22.59375 -8.441406 23.875 -9.734375 C 25.15625 -11.035156 25.796875 -12.679688 25.796875 -14.671875 C 25.796875 -16.703125 25.132812 -18.363281 23.8125 -19.65625 C 22.5 -20.957031 20.882812 -21.609375 18.96875 -21.609375 C 17.019531 -21.609375 15.382812 -20.957031 14.0625 -19.65625 Z M 14.0625 -19.65625 "/></g></g><g style="fill:#ffffff;fill-opacity:1;"><g transform="translate(72.116553, 51.910393)"><path style="stroke:none" d="M 6.21875 -3.5 C 2.945312 -6.40625 1.3125 -10.128906 1.3125 -14.671875 C 1.3125 -19.222656 3.007812 -22.957031 6.40625 -25.875 C 9.8125 -28.800781 14.019531 -30.265625 19.03125 -30.265625 C 23.957031 -30.265625 28.113281 -28.789062 31.5 -25.84375 C 34.882812 -22.90625 36.578125 -19.179688 36.578125 -14.671875 C 36.578125 -10.160156 34.921875 -6.441406 31.609375 -3.515625 C 28.304688 -0.597656 24.113281 0.859375 19.03125 0.859375 C 13.757812 0.859375 9.488281 -0.59375 6.21875 -3.5 Z M 14.0625 -19.65625 C 12.75 -18.363281 12.09375 -16.703125 12.09375 -14.671875 C 12.09375 -12.648438 12.722656 -11 13.984375 -9.71875 C 15.242188 -8.4375 16.90625 -7.796875 18.96875 -7.796875 C 20.957031 -7.796875 22.59375 -8.441406 23.875 -9.734375 C 25.15625 -11.035156 25.796875 -12.679688 25.796875 -14.671875 C 25.796875 -16.703125 25.132812 -18.363281 23.8125 -19.65625 C 22.5 -20.957031 20.882812 -21.609375 18.96875 -21.609375 C 17.019531 -21.609375 15.382812 -20.957031 14.0625 -19.65625 Z M 14.0625 -19.65625 "/></g></g><g style="fill:#ffffff;fill-opacity:1;"><g transform="translate(104.616133, 51.910393)"><path style="stroke:none" d="M 37.03125 -29.40625 L 23.046875 -15.359375 L 38.40625 0 L 25.34375 0 L 13.59375 -11.75 L 13.59375 0 L 3.4375 0 L 3.4375 -49.296875 L 13.59375 -49.296875 L 13.59375 -19.140625 L 23.84375 -29.40625 Z M 37.03125 -29.40625 "/></g></g></g><mask id="63995a3f6f"><g filter="url(#77031b2f44)"><rect x="0" width="375" y="0" height="374.999991" style="fill:#000000;fill-opacity:0.95;stroke:none;"/></g></mask></g><g mask="url(#7768db6f0b)" transform="matrix(1,0,0,1,186,138)"><g clip-path="url(#7d9c9f9436)"><g clip-rule="nonzero" clip-path="url(#2473489a42)"><g style="fill:#ffffff;fill-opacity:1;"><g transform="translate(1.180202, 51.910393)"><path style="stroke:none" d="M 14.21875 -18.96875 L 14.21875 0 L 3.4375 0 L 3.4375 -47.296875 L 14.21875 -47.296875 L 14.21875 -28.4375 L 29.46875 -28.4375 L 29.46875 -47.296875 L 40.25 -47.296875 L 40.25 0 L 29.46875 0 L 29.46875 -18.96875 Z M 14.21875 -18.96875 "/></g></g></g></g><mask id="7768db6f0b"><g filter="url(#77031b2f44)"><rect x="0" width="375" y="0" height="374.999991" style="fill:#000000;fill-opacity:0.95;stroke:none;"/></g></mask></g><g mask="url(#0e5e73e105)" transform="matrix(1,0,0,1,283,138)"><g clip-path="url(#90636dc6e7)"><g style="fill:#ffffff;fill-opacity:1;"><g transform="translate(1.376442, 51.910393)"><path style="stroke:none" d="M 37.03125 -29.40625 L 23.046875 -15.359375 L 38.40625 0 L 25.34375 0 L 13.59375 -11.75 L 13.59375 0 L 3.4375 0 L 3.4375 -49.296875 L 13.59375 -49.296875 L 13.59375 -19.140625 L 23.84375 -29.40625 Z M 37.03125 -29.40625 "/></g></g></g><mask id="0e5e73e105"><g filter="url(#77031b2f44)"><rect x="0" width="375" y="0" height="374.999991" style="fill:#000000;fill-opacity:0.95;stroke:none;"/></g></mask></g><g mask="url(#3facf4b41a)" transform="matrix(1,0,0,1,225,138)"><g clip-path="url(#a436e1893e)"><g clip-rule="nonzero" clip-path="url(#e657c86edf)"><g style="fill:#ffffff;fill-opacity:1;"><g transform="translate(0.956503, 51.910393)"><path style="stroke:none" d="M 5.4375 -3.640625 C 2.6875 -6.640625 1.3125 -10.316406 1.3125 -14.671875 C 1.3125 -19.035156 2.6875 -22.722656 5.4375 -25.734375 C 8.195312 -28.753906 11.695312 -30.265625 15.9375 -30.265625 C 19.832031 -30.265625 23.039062 -29.039062 25.5625 -26.59375 L 25.5625 -29.40625 L 35.71875 -29.40625 L 35.71875 0 L 25.6875 0 L 25.6875 -3.328125 L 25.5625 -3.328125 C 23.039062 -0.535156 19.832031 0.859375 15.9375 0.859375 C 11.695312 0.859375 8.195312 -0.640625 5.4375 -3.640625 Z M 14.0625 -19.65625 C 12.75 -18.363281 12.09375 -16.703125 12.09375 -14.671875 C 12.09375 -12.648438 12.722656 -11 13.984375 -9.71875 C 15.242188 -8.4375 16.90625 -7.796875 18.96875 -7.796875 C 20.957031 -7.796875 22.59375 -8.441406 23.875 -9.734375 C 25.15625 -11.035156 25.796875 -12.679688 25.796875 -14.671875 C 25.796875 -16.703125 25.132812 -18.363281 23.8125 -19.65625 C 22.5 -20.957031 20.882812 -21.609375 18.96875 -21.609375 C 17.019531 -21.609375 15.382812 -20.957031 14.0625 -19.65625 Z M 14.0625 -19.65625 "/></g></g></g></g><mask id="3facf4b41a"><g filter="url(#77031b2f44)"><rect x="0" width="375" y="0" height="374.999991" style="fill:#000000;fill-opacity:0.95;stroke:none;"/></g></mask></g><g style="fill:#ffffff;fill-opacity:1;"><g transform="translate(260.339399, 189.910394)"><path style="stroke:none" d="M 19.09375 -21.953125 C 17.175781 -21.953125 15.53125 -21.242188 14.15625 -19.828125 C 12.78125 -18.421875 12.09375 -16.722656 12.09375 -14.734375 C 12.09375 -12.703125 12.78125 -10.976562 14.15625 -9.5625 C 15.53125 -8.15625 17.175781 -7.453125 19.09375 -7.453125 C 20.007812 -7.453125 20.878906 -7.566406 21.703125 -7.796875 C 22.523438 -8.023438 23.125 -8.253906 23.5 -8.484375 L 24.015625 -8.828125 L 27.453125 -1.78125 C 27.191406 -1.582031 26.820312 -1.335938 26.34375 -1.046875 C 25.863281 -0.765625 24.773438 -0.378906 23.078125 0.109375 C 21.378906 0.609375 19.550781 0.859375 17.59375 0.859375 C 13.28125 0.859375 9.488281 -0.65625 6.21875 -3.6875 C 2.945312 -6.726562 1.3125 -10.375 1.3125 -14.625 C 1.3125 -18.90625 2.945312 -22.582031 6.21875 -25.65625 C 9.488281 -28.726562 13.28125 -30.265625 17.59375 -30.265625 C 19.550781 -30.265625 21.347656 -30.035156 22.984375 -29.578125 C 24.628906 -29.117188 25.796875 -28.660156 26.484375 -28.203125 L 27.453125 -27.515625 L 24.015625 -20.578125 C 22.753906 -21.492188 21.113281 -21.953125 19.09375 -21.953125 Z M 19.09375 -21.953125 "/></g></g><g style="fill:#ffffff;fill-opacity:1;"><g transform="translate(74.643136, 214.184989)"><path style="stroke:none" d="M 4.53125 -11.875 L 0.375 -11.875 L 0.375 -13.203125 L 10.09375 -13.203125 L 10.09375 -11.875 L 5.9375 -11.875 L 5.9375 0 L 4.53125 0 Z M 4.53125 -11.875 "/></g></g><g style="fill:#ffffff;fill-opacity:1;"><g transform="translate(84.409549, 214.184989)"><path style="stroke:none" d="M 1.515625 -9.046875 L 2.828125 -9.046875 L 2.828125 0 L 1.515625 0 Z M 2.171875 -11.21875 C 1.929688 -11.21875 1.726562 -11.300781 1.5625 -11.46875 C 1.394531 -11.632812 1.3125 -11.832031 1.3125 -12.0625 C 1.3125 -12.300781 1.394531 -12.503906 1.5625 -12.671875 C 1.726562 -12.835938 1.929688 -12.921875 2.171875 -12.921875 C 2.410156 -12.921875 2.609375 -12.835938 2.765625 -12.671875 C 2.929688 -12.503906 3.015625 -12.300781 3.015625 -12.0625 C 3.015625 -11.832031 2.929688 -11.632812 2.765625 -11.46875 C 2.609375 -11.300781 2.410156 -11.21875 2.171875 -11.21875 Z M 2.171875 -11.21875 "/></g></g><g style="fill:#ffffff;fill-opacity:1;"><g transform="translate(88.425446, 214.184989)"><path style="stroke:none" d="M 1.609375 -13.203125 L 2.921875 -13.203125 L 2.921875 -4.25 L 7.453125 -9.046875 L 9.046875 -9.046875 L 5.5625 -5.375 L 9.4375 0 L 7.921875 0 L 4.71875 -4.4375 L 2.921875 -2.546875 L 2.921875 0 L 1.609375 0 Z M 1.609375 -13.203125 "/></g></g><g style="fill:#ffffff;fill-opacity:1;"><g transform="translate(97.720726, 214.184989)"><path style="stroke:none" d="M 4.53125 -11.875 L 0.375 -11.875 L 0.375 -13.203125 L 10.09375 -13.203125 L 10.09375 -11.875 L 5.9375 -11.875 L 5.9375 0 L 4.53125 0 Z M 4.53125 -11.875 "/></g></g><g style="fill:#ffffff;fill-opacity:1;"><g transform="translate(106.732458, 214.184989)"><path style="stroke:none" d="M 5.46875 0.1875 C 4.820312 0.1875 4.21875 0.0664062 3.65625 -0.171875 C 3.101562 -0.421875 2.617188 -0.753906 2.203125 -1.171875 C 1.785156 -1.597656 1.453125 -2.097656 1.203125 -2.671875 C 0.960938 -3.242188 0.84375 -3.863281 0.84375 -4.53125 C 0.84375 -5.175781 0.960938 -5.785156 1.203125 -6.359375 C 1.453125 -6.941406 1.785156 -7.441406 2.203125 -7.859375 C 2.617188 -8.285156 3.101562 -8.617188 3.65625 -8.859375 C 4.21875 -9.109375 4.820312 -9.234375 5.46875 -9.234375 C 6.113281 -9.234375 6.710938 -9.109375 7.265625 -8.859375 C 7.828125 -8.617188 8.316406 -8.285156 8.734375 -7.859375 C 9.148438 -7.441406 9.476562 -6.941406 9.71875 -6.359375 C 9.96875 -5.785156 10.09375 -5.175781 10.09375 -4.53125 C 10.09375 -3.863281 9.96875 -3.242188 9.71875 -2.671875 C 9.476562 -2.097656 9.148438 -1.597656 8.734375 -1.171875 C 8.316406 -0.753906 7.828125 -0.421875 7.265625 -0.171875 C 6.710938 0.0664062 6.113281 0.1875 5.46875 0.1875 Z M 5.46875 -1.03125 C 5.914062 -1.03125 6.335938 -1.117188 6.734375 -1.296875 C 7.140625 -1.472656 7.488281 -1.71875 7.78125 -2.03125 C 8.082031 -2.351562 8.320312 -2.726562 8.5 -3.15625 C 8.675781 -3.582031 8.765625 -4.039062 8.765625 -4.53125 C 8.765625 -5.019531 8.675781 -5.476562 8.5 -5.90625 C 8.320312 -6.332031 8.082031 -6.703125 7.78125 -7.015625 C 7.488281 -7.328125 7.140625 -7.570312 6.734375 -7.75 C 6.335938 -7.925781 5.914062 -8.015625 5.46875 -8.015625 C 5.019531 -8.015625 4.597656 -7.925781 4.203125 -7.75 C 3.804688 -7.570312 3.457031 -7.328125 3.15625 -7.015625 C 2.851562 -6.703125 2.613281 -6.332031 2.4375 -5.90625 C 2.257812 -5.476562 2.171875 -5.019531 2.171875 -4.53125 C 2.171875 -4.039062 2.257812 -3.582031 2.4375 -3.15625 C 2.613281 -2.726562 2.851562 -2.359375 3.15625 -2.046875 C 3.457031 -1.734375 3.804688 -1.484375 4.203125 -1.296875 C 4.597656 -1.117188 5.019531 -1.03125 5.46875 -1.03125 Z M 5.46875 -1.03125 "/></g></g><g style="fill:#ffffff;fill-opacity:1;"><g transform="translate(117.347594, 214.184989)"><path style="stroke:none" d="M 1.609375 -13.203125 L 2.921875 -13.203125 L 2.921875 -4.25 L 7.453125 -9.046875 L 9.046875 -9.046875 L 5.5625 -5.375 L 9.4375 0 L 7.921875 0 L 4.71875 -4.4375 L 2.921875 -2.546875 L 2.921875 0 L 1.609375 0 Z M 1.609375 -13.203125 "/></g></g><g style="fill:#ffffff;fill-opacity:1;"><g transform="translate(126.642874, 214.184989)"><path style="stroke:none" d="M 12.300781 -5.734375 C 13.1875 -4.546875 14.113281 -3.152344 14.867188 -1.8125 L 6.734375 -1.039062 C 8.394531 -3.699219 10.039062 -7.1875 11.320312 -10.660156 L 9.792969 -11.039062 C 8.660156 -7.453125 6.699219 -3.566406 6.09375 -2.566406 C 5.472656 -1.507812 5.054688 -0.8125 4.621094 -0.699219 C 4.8125 -0.320312 5.054688 0.378906 5.132812 0.660156 C 5.753906 0.394531 6.699219 0.300781 15.546875 -0.621094 C 15.886719 0.0742188 16.167969 0.699219 16.375 1.265625 L 17.773438 0.605469 C 17.054688 -1.300781 15.246094 -4.132812 13.566406 -6.28125 Z M 11.640625 -13.261719 C 11.359375 -14 10.847656 -15.035156 10.320312 -15.828125 L 8.980469 -15.453125 C 9.378906 -14.773438 9.773438 -13.941406 10.039062 -13.261719 L 2.640625 -13.261719 L 2.640625 -8.28125 C 2.640625 -5.660156 2.492188 -1.980469 0.886719 0.605469 C 1.226562 0.734375 1.832031 1.167969 2.074219 1.394531 C 3.753906 -1.339844 4.019531 -5.453125 4.019531 -8.28125 L 4.019531 -11.925781 L 17.8125 -11.925781 L 17.8125 -13.261719 Z M 11.640625 -13.261719 "/></g></g><g style="fill:#ffffff;fill-opacity:1;"><g transform="translate(145.17708, 214.184989)"><path style="stroke:none" d="M 14.09375 -4.359375 L 14.09375 -0.753906 L 4.941406 -0.753906 L 4.941406 -4.359375 Z M 3.546875 1.621094 L 4.941406 1.621094 L 4.941406 0.566406 L 14.09375 0.566406 L 14.09375 1.585938 L 15.507812 1.585938 L 15.507812 -5.660156 L 3.546875 -5.660156 Z M 10.585938 -8.828125 L 10.585938 -11.792969 L 16.320312 -11.792969 L 16.320312 -13.074219 L 10.585938 -13.074219 L 10.585938 -15.792969 L 9.132812 -15.792969 L 9.132812 -13.074219 L 5.1875 -13.074219 C 5.527344 -13.792969 5.847656 -14.527344 6.113281 -15.28125 L 4.714844 -15.601562 C 4.019531 -13.507812 2.828125 -11.359375 1.453125 -10.019531 C 1.8125 -9.828125 2.433594 -9.453125 2.71875 -9.265625 C 3.339844 -9.941406 3.941406 -10.828125 4.507812 -11.792969 L 9.132812 -11.792969 L 9.132812 -8.828125 L 1.226562 -8.828125 L 1.226562 -7.507812 L 17.714844 -7.507812 L 17.714844 -8.828125 Z M 10.585938 -8.828125 "/></g></g><g style="fill:#ffffff;fill-opacity:1;"><g transform="translate(163.711285, 214.184989)"><path style="stroke:none" d="M 3.640625 -8.699219 C 5.226562 -10.394531 6.660156 -12.601562 7.621094 -15 L 6.132812 -15.414062 C 5.039062 -12.546875 3.132812 -9.941406 0.886719 -8.320312 C 1.246094 -8.054688 1.832031 -7.527344 2.09375 -7.246094 C 2.585938 -7.660156 3.09375 -8.113281 3.566406 -8.621094 L 3.566406 -7.320312 L 7.1875 -7.320312 C 6.753906 -4.152344 5.714844 -1.167969 1.28125 0.320312 C 1.585938 0.585938 1.980469 1.152344 2.167969 1.507812 C 6.90625 -0.226562 8.152344 -3.605469 8.660156 -7.320312 L 13.773438 -7.320312 C 13.546875 -2.640625 13.28125 -0.792969 12.8125 -0.320312 C 12.601562 -0.132812 12.394531 -0.0742188 12 -0.0742188 C 11.546875 -0.0742188 10.414062 -0.09375 9.1875 -0.207031 C 9.453125 0.1875 9.621094 0.773438 9.640625 1.1875 C 10.8125 1.265625 11.980469 1.28125 12.601562 1.226562 C 13.261719 1.1875 13.660156 1.039062 14.074219 0.566406 C 14.714844 -0.152344 14.960938 -2.300781 15.226562 -8.019531 C 15.246094 -8.207031 15.261719 -8.699219 15.261719 -8.699219 Z M 11.394531 -14.925781 C 12.714844 -12.152344 14.960938 -9.132812 16.921875 -7.414062 C 17.1875 -7.792969 17.679688 -8.320312 18.054688 -8.601562 C 16.09375 -10.074219 13.828125 -12.90625 12.660156 -15.453125 Z M 11.394531 -14.925781 "/></g></g><g style="fill:#ffffff;fill-opacity:1;"><g transform="translate(182.245491, 214.184989)"><path style="stroke:none" d="M 7.960938 -5.980469 C 7.585938 -6.546875 6.019531 -8.660156 5.359375 -9.453125 L 5.359375 -10.414062 L 8.113281 -10.414062 L 8.113281 -11.753906 L 5.359375 -11.753906 L 5.359375 -15.792969 L 4 -15.792969 L 4 -11.753906 L 1.1875 -11.753906 L 1.1875 -10.414062 L 3.847656 -10.414062 C 3.226562 -7.828125 1.925781 -4.886719 0.679688 -3.320312 C 0.90625 -2.980469 1.265625 -2.433594 1.414062 -2.054688 C 2.378906 -3.320312 3.300781 -5.359375 4 -7.472656 L 4 1.433594 L 5.359375 1.433594 L 5.359375 -7.714844 C 6 -6.714844 6.734375 -5.527344 7.054688 -4.867188 Z M 17.960938 -9.378906 L 10.414062 -9.378906 L 10.414062 -12.734375 C 12.679688 -13.148438 15.132812 -13.753906 16.886719 -14.472656 L 15.699219 -15.566406 C 14.167969 -14.867188 11.472656 -14.148438 9.09375 -13.714844 L 9.09375 -7.941406 C 9.09375 -5.320312 8.925781 -1.8125 7.226562 0.699219 C 7.546875 0.8125 8.132812 1.1875 8.378906 1.414062 C 10.152344 -1.1875 10.414062 -5.132812 10.414062 -7.941406 L 10.414062 -8.039062 L 13.847656 -8.039062 L 13.847656 1.453125 L 15.226562 1.453125 L 15.226562 -8.039062 L 17.960938 -8.039062 Z M 17.960938 -9.378906 "/></g></g><g style="fill:#ffffff;fill-opacity:1;"><g transform="translate(200.779697, 214.184989)"><path style="stroke:none" d="M 5.65625 -13.390625 L 6.890625 -13.390625 L 1.21875 3.953125 L 0 3.953125 Z M 5.65625 -13.390625 "/></g></g><g style="fill:#ffffff;fill-opacity:1;"><g transform="translate(207.341009, 214.184989)"><path style="stroke:none" d="M 10.320312 -5.074219 L 15.773438 -5.074219 L 15.773438 -6.339844 L 10.320312 -6.339844 L 10.320312 -10.660156 L 8.867188 -10.660156 L 8.867188 -0.394531 L 5.320312 -0.394531 L 5.320312 -7.359375 L 3.941406 -7.359375 L 3.941406 -0.394531 L 1.566406 -0.394531 L 1.566406 0.886719 L 17.527344 0.886719 L 17.527344 -0.394531 L 10.320312 -0.394531 Z M 9.394531 -15.960938 C 7.566406 -13.09375 4.167969 -10.507812 0.699219 -9.113281 C 1.054688 -8.773438 1.453125 -8.300781 1.660156 -7.941406 C 4.621094 -9.265625 7.433594 -11.339844 9.472656 -13.773438 C 11.886719 -10.941406 14.488281 -9.320312 17.359375 -7.925781 C 17.546875 -8.339844 17.941406 -8.8125 18.261719 -9.113281 C 15.339844 -10.394531 12.585938 -12 10.226562 -14.753906 C 10.375 -14.960938 10.527344 -15.148438 10.660156 -15.359375 Z M 9.394531 -15.960938 "/></g></g><g style="fill:#ffffff;fill-opacity:1;"><g transform="translate(225.875214, 214.184989)"><path style="stroke:none" d="M 17.09375 -14.546875 L 1.8125 -14.546875 L 1.8125 -13.246094 L 17.09375 -13.246094 Z M 6.074219 -6.378906 L 8.753906 -6.378906 L 8.753906 -3.90625 L 6.074219 -3.90625 Z M 6.074219 -9.960938 L 8.753906 -9.960938 L 8.753906 -7.507812 L 6.074219 -7.507812 Z M 12.679688 -7.507812 L 10 -7.507812 L 10 -9.960938 L 12.679688 -9.960938 Z M 12.679688 -3.90625 L 10 -3.90625 L 10 -6.378906 L 12.679688 -6.378906 Z M 13.90625 -2.71875 L 13.90625 -11.152344 L 4.886719 -11.152344 L 4.886719 -2.71875 Z M 15.714844 -10.039062 L 15.714844 -0.8125 L 3.1875 -0.8125 L 3.1875 -9.90625 L 1.773438 -9.90625 L 1.773438 0.507812 L 15.714844 0.507812 L 15.714844 1.378906 L 17.113281 1.378906 L 17.113281 -10.039062 Z M 15.714844 -10.039062 "/></g></g><g style="fill:#ffffff;fill-opacity:1;"><g transform="translate(244.40942, 214.184989)"><path style="stroke:none" d="M 8.601562 -14.1875 L 7.152344 -13.699219 C 7.621094 -12.714844 8.699219 -9.792969 9 -8.714844 L 10.472656 -9.226562 C 10.152344 -10.28125 9.019531 -13.28125 8.601562 -14.1875 Z M 15.246094 -13.472656 C 14.886719 -10.773438 13.773438 -7.679688 12.226562 -5.714844 C 10.320312 -3.300781 7.507812 -1.492188 4.8125 -0.699219 L 6.113281 0.621094 C 8.773438 -0.320312 11.566406 -2.265625 13.507812 -4.828125 C 15.054688 -6.867188 16.074219 -9.566406 16.640625 -11.90625 C 16.714844 -12.207031 16.847656 -12.660156 16.980469 -12.980469 Z M 3.339844 -13.054688 L 1.847656 -12.507812 C 2.300781 -11.699219 3.605469 -8.507812 3.960938 -7.339844 L 5.453125 -7.867188 C 5.019531 -9.113281 3.828125 -12 3.339844 -13.054688 Z M 3.339844 -13.054688 "/></g></g><g style="fill:#ffffff;fill-opacity:1;"><g transform="translate(262.943625, 214.184989)"><path style="stroke:none" d="M 1.925781 -6.320312 C 2.507812 -6.378906 3.507812 -6.414062 4.546875 -6.414062 L 14.90625 -6.414062 C 15.753906 -6.414062 16.546875 -6.339844 16.921875 -6.320312 L 16.921875 -8.167969 C 16.507812 -8.132812 15.828125 -8.074219 14.886719 -8.074219 L 4.546875 -8.074219 C 3.492188 -8.074219 2.492188 -8.132812 1.925781 -8.167969 Z M 1.925781 -6.320312 "/></g></g><g style="fill:#ffffff;fill-opacity:1;"><g transform="translate(281.477831, 214.184989)"><path style="stroke:none" d="M 2.660156 0.453125 C 4.246094 -0.847656 5.453125 -2.699219 6.019531 -4.714844 C 6.527344 -6.601562 6.601562 -10.640625 6.601562 -12.734375 C 6.601562 -13.300781 6.679688 -13.867188 6.699219 -14.09375 L 4.960938 -14.09375 C 5.039062 -13.699219 5.09375 -13.28125 5.09375 -12.714844 C 5.09375 -10.621094 5.074219 -6.867188 4.527344 -5.132812 C 3.960938 -3.300781 2.828125 -1.621094 1.246094 -0.492188 Z M 10.886719 0.433594 C 11.074219 0.28125 11.246094 0.152344 11.527344 0 C 13.714844 -1.09375 16.339844 -3.019531 17.960938 -5.226562 L 17.054688 -6.507812 C 15.621094 -4.378906 13.300781 -2.660156 11.566406 -1.867188 L 11.566406 -12.753906 C 11.566406 -13.472656 11.621094 -14 11.640625 -14.148438 L 9.90625 -14.148438 C 9.925781 -14 10.019531 -13.472656 10.019531 -12.753906 L 10.019531 -1.453125 C 10.019531 -1.074219 9.960938 -0.699219 9.886719 -0.394531 Z M 10.886719 0.433594 "/></g></g><g style="fill:#ffffff;fill-opacity:1;"><g transform="translate(300.022439, 214.184989)"><path style="stroke:none" d=""/></g></g></g></svg>